<svg xmlns="http://www.w3.org/2000/svg" xmlns:xlink="http://www.w3.org/1999/xlink" viewBox="0 0 644.55 141.63"><defs><style>.cls-1{fill:#2f2257;}.cls-2{fill:url(#linear-gradient);}.cls-3{fill:url(#linear-gradient-2);}.cls-4{fill:#32598e;}.cls-5{fill:url(#linear-gradient-3);}.cls-6{fill:url(#linear-gradient-4);}.cls-7{fill:url(#linear-gradient-5);}.cls-8{fill:url(#linear-gradient-6);}.cls-9{fill:url(#linear-gradient-7);}.cls-10{fill:url(#linear-gradient-8);}.cls-11{fill:url(#linear-gradient-9);}.cls-12{fill:url(#linear-gradient-10);}.cls-13{fill:url(#linear-gradient-11);}.cls-14{fill:url(#linear-gradient-12);}.cls-15{fill:url(#linear-gradient-13);}.cls-16{fill:url(#linear-gradient-14);}.cls-17{fill:url(#linear-gradient-16);}.cls-18{fill:url(#linear-gradient-17);}.cls-19{fill:url(#linear-gradient-18);}.cls-20{fill:url(#linear-gradient-19);}.cls-21{fill:url(#linear-gradient-20);}.cls-22{fill:#f47920;}.cls-23{fill:url(#linear-gradient-21);}.cls-24{fill:url(#linear-gradient-22);}.cls-25{fill:url(#linear-gradient-23);}.cls-26{fill:url(#linear-gradient-24);}.cls-27{fill:url(#linear-gradient-25);}.cls-28{fill:url(#linear-gradient-26);}.cls-29{fill:url(#linear-gradient-27);}.cls-30{fill:url(#linear-gradient-28);}.cls-31{fill:url(#linear-gradient-29);}.cls-32{fill:url(#linear-gradient-30);}</style><linearGradient id="linear-gradient" x1="98.8" y1="143.99" x2="4.2" y2="23.36" gradientUnits="userSpaceOnUse"><stop offset="0" stop-color="#2f2257"/><stop offset="0.37" stop-color="#2a1f52"/><stop offset="0.81" stop-color="#1d1644"/><stop offset="1" stop-color="#15113b"/></linearGradient><linearGradient id="linear-gradient-2" x1="105.02" y1="139.11" x2="10.42" y2="18.48" xlink:href="#linear-gradient"/><linearGradient id="linear-gradient-3" x1="106.72" y1="137.78" x2="12.13" y2="17.14" xlink:href="#linear-gradient"/><linearGradient id="linear-gradient-4" x1="73.47" y1="-0.66" x2="19.52" y2="36.11" gradientUnits="userSpaceOnUse"><stop offset="0" stop-color="#9e1c31"/><stop offset="1" stop-color="#c0202b"/></linearGradient><linearGradient id="linear-gradient-5" x1="103.91" y1="20.08" x2="129.87" y2="55.13" xlink:href="#linear-gradient"/><linearGradient id="linear-gradient-6" x1="121.08" y1="104.36" x2="73.37" y2="139.56" gradientUnits="userSpaceOnUse"><stop offset="0" stop-color="#f1584c"/><stop offset="1" stop-color="#ef3830"/></linearGradient><linearGradient id="linear-gradient-7" x1="32.4" y1="121.16" x2="8.07" y2="61.64" gradientUnits="userSpaceOnUse"><stop offset="0" stop-color="#32598e"/><stop offset="0.01" stop-color="#31588d"/><stop offset="0.26" stop-color="#294c7f"/><stop offset="0.48" stop-color="#26487a"/><stop offset="0.72" stop-color="#284b7d"/><stop offset="0.92" stop-color="#2e5387"/><stop offset="1" stop-color="#32598e"/></linearGradient><linearGradient id="linear-gradient-8" x1="138.49" y1="25.5" x2="28.66" y2="138.87" xlink:href="#linear-gradient-4"/><linearGradient id="linear-gradient-9" x1="141.76" y1="28.67" x2="31.93" y2="142.04" xlink:href="#linear-gradient-4"/><linearGradient id="linear-gradient-10" x1="142.15" y1="29.05" x2="32.32" y2="142.42" xlink:href="#linear-gradient-4"/><linearGradient id="linear-gradient-11" x1="-0.27" y1="112.73" x2="109.08" y2="-2.3" xlink:href="#linear-gradient-6"/><linearGradient id="linear-gradient-12" x1="0.04" y1="113.03" x2="109.4" y2="-2" xlink:href="#linear-gradient-6"/><linearGradient id="linear-gradient-13" x1="33.67" y1="6.21" x2="136.77" y2="112.49" gradientUnits="userSpaceOnUse"><stop offset="0" stop-color="#26487a"/><stop offset="0.42" stop-color="#294c81"/><stop offset="1" stop-color="#3e6599"/></linearGradient><linearGradient id="linear-gradient-14" x1="-0.27" y1="112.73" x2="109.08" y2="-2.3" xlink:href="#linear-gradient-6"/><linearGradient id="linear-gradient-16" x1="3.9" y1="116.83" x2="113.43" y2="1.62" xlink:href="#linear-gradient-6"/><linearGradient id="linear-gradient-17" x1="-2.59" y1="109.86" x2="109.72" y2="-3.16" gradientUnits="userSpaceOnUse"><stop offset="0" stop-color="#f1584c"/><stop offset="0.51" stop-color="#f47b67"/><stop offset="1" stop-color="#ef3830"/></linearGradient><linearGradient id="linear-gradient-18" x1="119.01" y1="127.63" x2="15.38" y2="12.31" gradientUnits="userSpaceOnUse"><stop offset="0" stop-color="#2f2257"/><stop offset="0.18" stop-color="#34275a"/><stop offset="0.38" stop-color="#423564"/><stop offset="0.51" stop-color="#4e416c"/><stop offset="0.63" stop-color="#493d68"/><stop offset="0.77" stop-color="#3b315b"/><stop offset="0.93" stop-color="#231d47"/><stop offset="1" stop-color="#15113b"/></linearGradient><linearGradient id="linear-gradient-19" x1="144.7" y1="33.46" x2="18.04" y2="133.9" gradientUnits="userSpaceOnUse"><stop offset="0" stop-color="#9e1c31"/><stop offset="0.5" stop-color="#ca5345"/><stop offset="1" stop-color="#c0202b"/></linearGradient><linearGradient id="linear-gradient-20" x1="75.23" y1="1.26" x2="18.43" y2="29.66" gradientUnits="userSpaceOnUse"><stop offset="0" stop-color="#9e1c31"/><stop offset="1" stop-color="#ca5345"/></linearGradient><linearGradient id="linear-gradient-21" x1="107.89" y1="20.45" x2="135.85" y2="64.44" gradientUnits="userSpaceOnUse"><stop offset="0" stop-color="#4e416c"/><stop offset="1" stop-color="#15113b"/></linearGradient><linearGradient id="linear-gradient-22" x1="77.32" y1="130.19" x2="120.37" y2="102.76" gradientUnits="userSpaceOnUse"><stop offset="0" stop-color="#ef3830"/><stop offset="1" stop-color="#f47b67"/></linearGradient><linearGradient id="linear-gradient-23" x1="11.73" y1="76.66" x2="38.71" y2="120.46" gradientUnits="userSpaceOnUse"><stop offset="0" stop-color="#26487a"/><stop offset="1" stop-color="#3e6599"/></linearGradient><linearGradient id="linear-gradient-24" x1="114.54" y1="131.64" x2="10.91" y2="16.32" gradientUnits="userSpaceOnUse"><stop offset="0" stop-color="#2f2257"/><stop offset="0.18" stop-color="#34275a"/><stop offset="0.39" stop-color="#423564"/><stop offset="0.51" stop-color="#4e416c"/><stop offset="0.63" stop-color="#493d68"/><stop offset="0.77" stop-color="#3b315b"/><stop offset="0.93" stop-color="#231d47"/><stop offset="1" stop-color="#15113b"/></linearGradient><linearGradient id="linear-gradient-25" x1="2.31" y1="114.73" x2="114.62" y2="1.71" xlink:href="#linear-gradient-17"/><linearGradient id="linear-gradient-26" x1="141.27" y1="29.14" x2="14.61" y2="129.58" xlink:href="#linear-gradient-19"/><linearGradient id="linear-gradient-27" x1="138.66" y1="112.38" x2="34.86" y2="-0.46" gradientUnits="userSpaceOnUse"><stop offset="0" stop-color="#3e6599"/><stop offset="0.58" stop-color="#32598e"/><stop offset="1" stop-color="#3e6599"/></linearGradient><linearGradient id="linear-gradient-28" x1="136.95" y1="113.96" x2="33.15" y2="1.12" gradientUnits="userSpaceOnUse"><stop offset="0.17" stop-color="#3e6599"/><stop offset="1" stop-color="#32598e"/></linearGradient><linearGradient id="linear-gradient-29" x1="110.55" y1="135.22" x2="6.92" y2="19.9" xlink:href="#linear-gradient-18"/><linearGradient id="linear-gradient-30" x1="108.05" y1="123.89" x2="122.6" y2="123.89" gradientUnits="userSpaceOnUse"><stop offset="0.02" stop-color="#362a66"/><stop offset="0.4" stop-color="#3b3067"/><stop offset="0.89" stop-color="#474069"/><stop offset="1" stop-color="#4b446a"/></linearGradient></defs><g id="Layer_2" data-name="Layer 2"><g id="_Shadow"><path class="cls-1" d="M170.34,46.72h6.44a9,9,0,0,1,4.86,1.41,7.56,7.56,0,0,1,3.17,3.79L200.63,88.2a12,12,0,0,1,.68,2.43c.15.86.26,1.79.34,2.77a13.43,13.43,0,0,1,1.07-5.2l15.82-36.34a8.32,8.32,0,0,1,3.23-3.79,8.74,8.74,0,0,1,4.8-1.41H233l-25.88,59.39H196.22Z"/><path class="cls-1" d="M291.16,71.36a7.92,7.92,0,0,1-.76,3.53,9.62,9.62,0,0,1-1.89,2.65,8.36,8.36,0,0,1-2.52,1.7,6.59,6.59,0,0,1-2.63.59H242.11a17.26,17.26,0,0,0,2.26,6.39,20,20,0,0,0,4.35,5.11,20.25,20.25,0,0,0,5.88,3.42,19.43,19.43,0,0,0,11.84.6A20.76,20.76,0,0,0,271,93.51a9.42,9.42,0,0,1,2.2-.91,9.77,9.77,0,0,1,2.38-.28,7.75,7.75,0,0,1,3.27.68,9.59,9.59,0,0,1,2.77,2l2.15,2.15a31.64,31.64,0,0,1-9.95,7.14,29.09,29.09,0,0,1-12.37,2.63,29.59,29.59,0,0,1-11.84-2.4,30.68,30.68,0,0,1-16.28-16.28,30.38,30.38,0,0,1,0-23.67A30.77,30.77,0,0,1,249.6,48.27a29.59,29.59,0,0,1,11.84-2.4,29.13,29.13,0,0,1,10.06,1.75,31.75,31.75,0,0,1,8.7,4.8,31.23,31.23,0,0,1,6.7,7.24,29.19,29.19,0,0,1,4,9.1,5,5,0,0,1,.17,1.3C291.11,70.51,291.12,70.94,291.16,71.36Zm-44.81-2.43h33.23A20.91,20.91,0,0,0,276.64,64a19.31,19.31,0,0,0-9.33-6.36,19.79,19.79,0,0,0-12.23.14,19.71,19.71,0,0,0-5.48,2.91,19.56,19.56,0,0,0-6.92,10.06A5.51,5.51,0,0,1,244,69.55,4,4,0,0,1,246.35,68.93Z"/><path class="cls-1" d="M308.18,46.72a11.92,11.92,0,0,1,.82,1.35,12.71,12.71,0,0,1,.59,1.5,6.08,6.08,0,0,1,.28,1.89v4.13a13.94,13.94,0,0,1,2.83-3.79,21.24,21.24,0,0,1,4.07-3.08,21.5,21.5,0,0,1,4.88-2.09,19.11,19.11,0,0,1,5.35-.76,22.74,22.74,0,0,1,8.64,1.64l-.84,4.8a6.16,6.16,0,0,1-2,3.7,5.82,5.82,0,0,1-3.9,1.33,1.06,1.06,0,0,1-.34,0,.46.46,0,0,0-.2,0,3.75,3.75,0,0,1-.42,0q-.28,0-1,0a20.43,20.43,0,0,0-6.41,1,20.16,20.16,0,0,0-5.31,2.57,14.62,14.62,0,0,0-3.71,3.59,8.23,8.23,0,0,0-1.58,4v37.63H298.68V46.72Z"/><path class="cls-1" d="M340.39,55.42a13.38,13.38,0,0,1,1.35-1.7,23.12,23.12,0,0,1,1.7-1.61,27,27,0,0,1,2.37-1.78A28.93,28.93,0,0,1,353.1,47a30.6,30.6,0,0,1,8.71-1.16,26.93,26.93,0,0,1,8.47,1.19,18.86,18.86,0,0,1,6.19,3.3,17.46,17.46,0,0,1,4.18,5,28,28,0,0,1,2.55,6.3,42,42,0,0,1,1.27,7.18c.22,2.51.34,5,.34,7.6v29.61h-9.16a7.65,7.65,0,0,1-1.21-2.17,7.26,7.26,0,0,1-.48-2.57V99.78a18.28,18.28,0,0,1-3.82,2.88,32.88,32.88,0,0,1-9.46,3.71,21.09,21.09,0,0,1-4.41.53,25,25,0,0,1-8.17-1.27,18.21,18.21,0,0,1-6.33-3.62,16,16,0,0,1-4.07-5.65A18.25,18.25,0,0,1,336.26,89a18.66,18.66,0,0,1,1.64-7.94,15.8,15.8,0,0,1,5-6,24.55,24.55,0,0,1,8.48-3.87,47.62,47.62,0,0,1,12.07-1.36c1.28,0,2.51,0,3.7.12s2.25.15,3.19.22,1.72.15,2.35.23a10.49,10.49,0,0,1,1.15.17,22.78,22.78,0,0,0-1.27-6.9,11.5,11.5,0,0,0-2.68-4.26,8.9,8.9,0,0,0-3.73-2.15,18,18,0,0,0-8.71-.11,18.51,18.51,0,0,0-2.79,1.07c-.81.4-1.61.75-2.4,1.07a8.66,8.66,0,0,1-3.17.48,8.05,8.05,0,0,1-2.85-.5,11.18,11.18,0,0,1-2.63-1.47Zm15.82,40.75a25.1,25.1,0,0,0,4.24-.4,38,38,0,0,0,4.58-1.1,43.33,43.33,0,0,0,4.6-1.7A37.49,37.49,0,0,0,374,90.74V80.79a8.26,8.26,0,0,0-1.16-.08l-2.42-.09-3.23-.08c-1.18,0-2.4,0-3.64,0A44.46,44.46,0,0,0,357,81a19.51,19.51,0,0,0-5.25,1.47,9.32,9.32,0,0,0-3.51,2.63A6.12,6.12,0,0,0,347,89a7.13,7.13,0,0,0,.71,3.33,5.94,5.94,0,0,0,2,2.21,8.56,8.56,0,0,0,2.93,1.24A16.13,16.13,0,0,0,356.21,96.17Z"/><path class="cls-1" d="M439.29,106.05a5.91,5.91,0,0,1-.85-1.35,14.15,14.15,0,0,1-.57-1.5,6,6,0,0,1-.28-1.89v-.4a19.42,19.42,0,0,1-3.65,2.91,20.84,20.84,0,0,1-3.87,1.87,20.26,20.26,0,0,1-4,1,30.08,30.08,0,0,1-3.95.28,28.34,28.34,0,0,1-11.67-2.4A28.8,28.8,0,0,1,401.11,98,30.55,30.55,0,0,1,395,88.28a32.55,32.55,0,0,1,0-23.68,30.55,30.55,0,0,1,6.16-9.72,28.77,28.77,0,0,1,9.33-6.55,28.83,28.83,0,0,1,15.62-2.12,21.67,21.67,0,0,1,4,1A19,19,0,0,1,433.94,49a19.42,19.42,0,0,1,3.65,2.91V25.07h11.19v81ZM422.11,56.83a17.61,17.61,0,0,0-7.46,1.56,18.06,18.06,0,0,0-5.85,4.21A19.1,19.1,0,0,0,405,68.81a22.24,22.24,0,0,0,0,15.26,19.15,19.15,0,0,0,3.82,6.22,18.21,18.21,0,0,0,5.85,4.21,17.76,17.76,0,0,0,7.46,1.55,22.07,22.07,0,0,0,15.48-6.44V63.27a22.19,22.19,0,0,0-15.48-6.44Z"/><path class="cls-1" d="M457.32,31.8a7.37,7.37,0,0,1,.6-3A7.63,7.63,0,0,1,462,24.76a7.77,7.77,0,0,1,5.94,0,7.78,7.78,0,0,1,2.43,1.64A8,8,0,0,1,472,28.83a7.75,7.75,0,0,1,0,5.93,7.72,7.72,0,0,1-1.64,2.43,7.61,7.61,0,0,1-2.43,1.64,7.65,7.65,0,0,1-5.94,0,7.61,7.61,0,0,1-2.43-1.64,7.53,7.53,0,0,1-1.63-2.43A7.35,7.35,0,0,1,457.32,31.8Zm13.17,14.92v59.33H459.3V46.72Z"/><path class="cls-1" d="M531.36,54.18a7.61,7.61,0,0,1-2.74,3.58A9.84,9.84,0,0,1,523.05,59a24.57,24.57,0,0,1,1.41,4.35A20.92,20.92,0,0,1,525,68a21.4,21.4,0,0,1-1.75,8.62,22.23,22.23,0,0,1-11.78,11.78,21.43,21.43,0,0,1-8.62,1.75A22,22,0,0,1,493,87.91a9,9,0,0,0-2.66,2.29,3.08,3.08,0,0,0-.51,1.39,1.63,1.63,0,0,0,.17.73l.23.23a3.66,3.66,0,0,0,1.75.87,20.39,20.39,0,0,0,3,.6c1.15.15,2.4.25,3.76.31s2.66.08,3.9.08c2.52,0,5.09.12,7.68.34a30.24,30.24,0,0,1,7.18,1.47,14.61,14.61,0,0,1,7.24,5,13.41,13.41,0,0,1,2.48,8.17,14.94,14.94,0,0,1-1.41,6.55,14.11,14.11,0,0,1-4.13,5.06,19.68,19.68,0,0,1-6.61,3.28,31.26,31.26,0,0,1-8.87,1.16,49.16,49.16,0,0,1-7.83-.62q-3.81-.63-7.37-1.59c-2.38-.64-4.67-1.36-6.9-2.17s-4.31-1.59-6.27-2.35l1.36-3.78a5.64,5.64,0,0,1,2.74-3.14,9,9,0,0,1,4.49-1.16,12.6,12.6,0,0,1,2.88.34,16.51,16.51,0,0,1,2.6.85l1.87.71c.86.32,1.93.64,3.19,1a40.86,40.86,0,0,0,4.27.88,33.4,33.4,0,0,0,5,.37,19.8,19.8,0,0,0,3-.29,15.65,15.65,0,0,0,3.36-.9,8.47,8.47,0,0,0,2.72-1.67,3.29,3.29,0,0,0,1.12-2.51,3.43,3.43,0,0,0-.39-1.78,3.86,3.86,0,0,0-2-1.22,21.62,21.62,0,0,0-5.28-1c-2-.15-4-.27-6.16-.34s-4.28-.18-6.44-.31a38.07,38.07,0,0,1-6.16-.88,19.71,19.71,0,0,1-5.29-2A10.5,10.5,0,0,1,480.89,98a7.52,7.52,0,0,1-1-4,8.63,8.63,0,0,1,1.95-5,16.36,16.36,0,0,1,6-4.69,21.93,21.93,0,0,1-5.23-7.24,21.66,21.66,0,0,1-1.89-9,21.43,21.43,0,0,1,1.75-8.62A22.23,22.23,0,0,1,494.2,47.62,22.11,22.11,0,0,1,509.8,47a22.48,22.48,0,0,1,6.07,3.16,16.42,16.42,0,0,1,3-1.3,14.89,14.89,0,0,1,4.66-.62,25.59,25.59,0,0,1,4.1.37,38,38,0,0,1,5.06,1.21ZM491.4,68a10.85,10.85,0,0,0,.91,4.44,11.64,11.64,0,0,0,6.07,6.07,11.29,11.29,0,0,0,8.88,0,11.73,11.73,0,0,0,6.07-6.07,11.38,11.38,0,0,0,0-8.87,11.71,11.71,0,0,0-6.07-6.08,11.4,11.4,0,0,0-8.88,0,11.61,11.61,0,0,0-6.07,6.08A10.77,10.77,0,0,0,491.4,68Z"/><path class="cls-1" d="M582.5,57.45a14.74,14.74,0,0,1,3.13-5.25,18.12,18.12,0,0,1,4.7-3.62,21.3,21.3,0,0,1,5.59-2.06,27.79,27.79,0,0,1,5.91-.65,17.83,17.83,0,0,1,9.24,2.26,18.26,18.26,0,0,1,6.18,6,26.78,26.78,0,0,1,3.48,8.5,43.84,43.84,0,0,1,1.1,9.81v33.62H610.42V72.49a41.18,41.18,0,0,0-.37-5.23,18.55,18.55,0,0,0-1.41-5.12,10.88,10.88,0,0,0-2.89-3.87A7.14,7.14,0,0,0,601,56.72a17.82,17.82,0,0,0-5.46.82A16.29,16.29,0,0,0,591,59.77a12.48,12.48,0,0,0-3.2,3.25,7.72,7.72,0,0,0-1.33,3.87v39.16H575V72.49a39.41,39.41,0,0,0-.37-5.23,18.2,18.2,0,0,0-1.41-5.12,11,11,0,0,0-2.88-3.87,7.19,7.19,0,0,0-4.78-1.55,17.71,17.71,0,0,0-5.45.82,16.35,16.35,0,0,0-4.55,2.23A12.64,12.64,0,0,0,552.4,63a7.61,7.61,0,0,0-1.32,3.87v39.16H539.89V46.72h9.49a11.92,11.92,0,0,1,.82,1.35,11.12,11.12,0,0,1,.6,1.5,6.39,6.39,0,0,1,.28,1.89v2.38a12.08,12.08,0,0,1,2.65-3.54,15.75,15.75,0,0,1,3.68-2.48,18.27,18.27,0,0,1,4.35-1.47,23,23,0,0,1,4.69-.48,21.22,21.22,0,0,1,6.13.79A13.81,13.81,0,0,1,577.13,49a13.41,13.41,0,0,1,3.22,3.64A22.47,22.47,0,0,1,582.5,57.45Z"/><path class="cls-2" d="M41,70.82A134,134,0,0,1,25.78,47.61C25,46,24.21,44.37,23.52,42.72a60.66,60.66,0,0,1-3.88-12.43A40.36,40.36,0,0,1,19,19,31,31,0,0,1,23.85,5h0C18.86,8.1,6.35,21.23,5,23.83v0a31.72,31.72,0,0,0-5,18c.1,7.39,2.42,15,5.84,22.35,1,2.23,2.17,4.43,3.38,6.58a130.47,130.47,0,0,0,8,12.33c2.93,4,5.89,7.72,8.59,10.87a252.65,252.65,0,0,0,21.83,21.83,134,134,0,0,0,23.21-15.26A248.47,248.47,0,0,1,41,70.82Z"/><path class="cls-3" d="M94,115.85c-3.15,2.7-6.83,5.66-10.87,8.59a54.82,54.82,0,0,0,15.76-6.33C97.26,117.42,95.63,116.66,94,115.85Z"/><path class="cls-4" d="M47.61,25.78c3.15-2.7,6.83-5.66,10.87-8.59a54.82,54.82,0,0,0-15.76,6.33C44.37,24.21,46,25,47.61,25.78Z"/><path class="cls-4" d="M23.85,5A31,31,0,0,0,19,19a41.16,41.16,0,0,1,11.26.61A64.94,64.94,0,0,1,64.24,5.84C56.92,2.42,49.28.1,41.89,0A31.72,31.72,0,0,0,23.85,5Z"/><path class="cls-5" d="M118.6,122.76a41.91,41.91,0,0,1-7.26-.76,65.07,65.07,0,0,1-33.95,13.8c7.32,3.41,15,5.73,22.35,5.83a31.78,31.78,0,0,0,18.05-5c4.12-6,4.75-13.4,4.81-14A37.57,37.57,0,0,1,118.6,122.76Z"/><path class="cls-6" d="M77.39,5.84a65.17,65.17,0,0,0-47.1,13.8A65.82,65.82,0,0,0,19.64,30.29a60.66,60.66,0,0,0,3.88,12.43,55.13,55.13,0,0,1,35-25.53,129.37,129.37,0,0,1,12.34-8C73,8,75.16,6.87,77.39,5.84Z"/><path class="cls-7" d="M135.8,64.24A65.1,65.1,0,0,0,122,30.29a65.88,65.88,0,0,0-10.66-10.65,60.66,60.66,0,0,0-12.43,3.88,55.13,55.13,0,0,1,25.53,35,129.37,129.37,0,0,1,8,12.34c1.21,2.14,2.35,4.34,3.39,6.57.21-2.16.32-4.36.32-6.57S136,66.4,135.8,64.24Z"/><path class="cls-8" d="M98.91,118.11a54.82,54.82,0,0,1-15.76,6.33,130.47,130.47,0,0,1-12.33,8c-2.15,1.21-4.35,2.35-6.58,3.39,2.16.21,4.36.33,6.58.33s4.41-.12,6.57-.33a65.07,65.07,0,0,0,34-13.8A66.35,66.35,0,0,0,122,111.34a61.32,61.32,0,0,0-3.89-12.43A55.32,55.32,0,0,1,98.91,118.11Z"/><path class="cls-9" d="M23.52,98.91a54.82,54.82,0,0,1-6.33-15.76,130.47,130.47,0,0,1-8-12.33C8,68.67,6.87,66.47,5.84,64.24a65.17,65.17,0,0,0,13.8,47.1A66.29,66.29,0,0,0,30.29,122a61.32,61.32,0,0,0,12.43-3.89A55.32,55.32,0,0,1,23.52,98.91Z"/><path class="cls-10" d="M70.82,100.59a134,134,0,0,1-23.21,15.26c-1.61.81-3.24,1.57-4.89,2.26A61.32,61.32,0,0,1,30.29,122a49.41,49.41,0,0,1-11.26.6,31,31,0,0,1-14-4.82c1.8,3.23,14.42,16.35,18.84,18.85h0a31.72,31.72,0,0,0,18,5c7.39-.1,15-2.42,22.35-5.83,2.23-1,4.43-2.18,6.58-3.39a130.47,130.47,0,0,0,12.33-8c4-2.93,7.72-5.89,10.87-8.59A252.65,252.65,0,0,0,115.85,94a133.51,133.51,0,0,0-15.26-23.2C93.3,80.13,81.65,91.79,70.82,100.59Z"/><path class="cls-11" d="M136.64,23.85h0a33.23,33.23,0,0,0-14-4.81A42.74,42.74,0,0,1,122,30.29,65,65,0,0,1,135.8,64.24c3.41-7.32,5.73-15,5.83-22.35A31.72,31.72,0,0,0,136.64,23.85Z"/><path class="cls-12" d="M115.85,47.61c2.7,3.15,5.66,6.83,8.59,10.87a54.82,54.82,0,0,0-6.33-15.76C117.42,44.37,116.66,46,115.85,47.61Z"/><path class="cls-13" d="M25.78,94c-2.7-3.15-5.66-6.83-8.59-10.87a54.82,54.82,0,0,0,6.33,15.76C24.21,97.26,25,95.63,25.78,94Z"/><path class="cls-14" d="M19.64,111.34A65,65,0,0,1,5.84,77.39C2.42,84.71.1,92.35,0,99.74a31.72,31.72,0,0,0,5,18,31,31,0,0,0,14,4.82A37.16,37.16,0,0,1,19.64,111.34Z"/><path class="cls-15" d="M141.63,99.74c-.1-7.39-2.42-15-5.83-22.35-1-2.23-2.18-4.43-3.39-6.57a129.37,129.37,0,0,0-8-12.34c-2.93-4-5.89-7.72-8.59-10.87A252.65,252.65,0,0,0,94,25.78,133.51,133.51,0,0,0,70.82,41c9.14,7,22.66,20.74,29.77,29.78A139.71,139.71,0,0,1,115.85,94c.81,1.61,1.57,3.24,2.26,4.89A61.32,61.32,0,0,1,122,111.34a44.79,44.79,0,0,1,.6,11.26c-.06.64-.69,8-4.81,14,5.71-4.37,14.48-13,18.85-18.86C140.19,113,141.72,106.49,141.63,99.74Z"/><path class="cls-16" d="M23.52,98.91c.69-1.65,1.45-3.28,2.26-4.89-2.7-3.15-5.66-6.83-8.59-10.87A54.82,54.82,0,0,0,23.52,98.91Z"/><path class="cls-14" d="M5.84,77.39C2.42,84.71.1,92.35,0,99.74a31.72,31.72,0,0,0,5,18,31,31,0,0,0,14,4.82,37.16,37.16,0,0,1,.61-11.26A65,65,0,0,1,5.84,77.39Z"/><path class="cls-17" d="M117.79,5A32.61,32.61,0,0,0,99.74,0c-7.39.1-15,2.42-22.35,5.84C75.16,6.87,73,8,70.82,9.22a129.37,129.37,0,0,0-12.34,8c-4,2.93-7.69,5.92-10.87,8.59A200.87,200.87,0,0,0,25.78,47.61,134,134,0,0,0,41,70.82C48.09,61.28,62.23,47.94,70.82,41A133.51,133.51,0,0,1,94,25.78c1.61-.81,3.24-1.57,4.89-2.26a60.66,60.66,0,0,1,12.43-3.88A42.42,42.42,0,0,1,122.6,19a33.07,33.07,0,0,1,14,4.82C131.34,16.07,121.53,7.39,117.79,5Z"/><path class="cls-18" d="M3,99.78A40.31,40.31,0,0,1,4.82,88.5a52.4,52.4,0,0,1,1.9-5.13c-.39-2-.68-4-.88-6C2.42,84.71.1,92.35,0,99.74a31.72,31.72,0,0,0,5,18,30.35,30.35,0,0,0,5.56,2.84c-1.22-1.71-2.38-3.52-3.38-5C4.57,111.68,2.93,105.66,3,99.78Z"/><path class="cls-19" d="M119.06,125.78c.71,0,1.92,0,3.09-.1.32-1.68.43-2.84.45-3.08a37.57,37.57,0,0,1-4,.16,41.91,41.91,0,0,1-7.26-.76c-1.07.85-2.18,1.66-3.3,2.45,1.46.3,3.73.68,4.09.74A40.68,40.68,0,0,0,119.06,125.78Z"/><path class="cls-20" d="M141.63,41.89a31.72,31.72,0,0,0-5-18h0a34.41,34.41,0,0,0-6-2.94s2.26,2.77,3.83,5.15c3,4.5,4.24,9.93,4.16,15.8a47.29,47.29,0,0,1-1.81,11.28,32.11,32.11,0,0,1-1.91,5q.58,3,.9,6.06C139.21,56.92,141.53,49.28,141.63,41.89Z"/><path class="cls-21" d="M32.16,22A62.05,62.05,0,0,1,64.54,8.83l1.18-.11C67.1,8.58,70.3,8.18,73,8c1.43-.76,2.88-1.49,4.35-2.17a65.17,65.17,0,0,0-47.1,13.8A65.82,65.82,0,0,0,19.64,30.29c.23,1.26.53,2.51.87,3.77.88-1.13,1.67-2.12,2.36-3A62.87,62.87,0,0,1,32.16,22Z"/><path class="cls-22" d="M133.71,73.5l0-.35-.13-.25Z"/><path class="cls-23" d="M136.12,70.82c0-2.22-.11-4.42-.32-6.58a65.46,65.46,0,0,0-24.46-44.6c-1.24.23-2.48.52-3.72.85,1.09.84,2.14,1.75,2.93,2.38a62.87,62.87,0,0,1,9.09,9.29A61.05,61.05,0,0,1,132.8,64.54c.09,1,.67,6,.88,8.61.74,1.39,1.45,2.81,2.12,4.24C136,75.23,136.12,73,136.12,70.82Z"/><path class="cls-24" d="M100.45,120.7h0a58.56,58.56,0,0,0,16.91-15.25c.79-1.06,1.52-2.12,2.15-3-.43-1.2-.89-2.39-1.4-3.57a55.13,55.13,0,0,1-35,25.53c-2.18,1.58-4.46,3.14-6.83,4.65l8.11-1.86A57.54,57.54,0,0,0,100.45,120.7Z"/><path class="cls-25" d="M20.93,100.45a58.56,58.56,0,0,0,15.25,16.91c1.07.83,2.1,1.5,3,2.13,1.17-.43,2.34-.88,3.5-1.38a55.13,55.13,0,0,1-25.53-35c-1.54-2.13-3.08-4.37-4.56-6.69.34,1.89,1,4.64,1.77,8A57.54,57.54,0,0,0,20.93,100.45Z"/><path class="cls-26" d="M16,18.77a42.75,42.75,0,0,0,.65,12.08,64.15,64.15,0,0,0,4.06,13c.72,1.68,1.51,3.39,2.35,5.06A134.29,134.29,0,0,0,38.7,72.7C45,80.56,57.25,93,66,100.52l2.4,2c.82-.63,1.61-1.26,2.39-1.88A248.47,248.47,0,0,1,41,70.82,134,134,0,0,1,25.78,47.61C25,46,24.21,44.37,23.52,42.72a60.66,60.66,0,0,1-3.88-12.43A40.36,40.36,0,0,1,19,19,31,31,0,0,1,23.85,5h0a44.28,44.28,0,0,0-5.64,4.6,25.28,25.28,0,0,0-1.67,5.79A33.53,33.53,0,0,0,16,18.77Z"/><path class="cls-27" d="M49.55,28.08c3-2.54,6.68-5.54,10.69-8.45a126.65,126.65,0,0,1,12.05-7.78c2.12-1.2,4.27-2.3,6.37-3.29C86.37,5,93.48,3.1,99.78,3a29.67,29.67,0,0,1,16.38,4.52h0a74.85,74.85,0,0,1,10.41,9,51.61,51.61,0,0,1,4.06,4.33,33.51,33.51,0,0,1,6,3C131.34,16.07,121.53,7.39,117.79,5A32.61,32.61,0,0,0,99.74,0c-7.39.1-15,2.42-22.35,5.84C75.16,6.87,73,8,70.82,9.22a129.37,129.37,0,0,0-12.34,8c-4,2.93-7.69,5.92-10.87,8.59A200.87,200.87,0,0,0,25.78,47.61c.47.94.95,1.86,1.45,2.78.75-.81,1.48-1.62,2.14-2.38A204.68,204.68,0,0,1,49.55,28.08Z"/><path class="cls-28" d="M18.75,125.6h.1a51.32,51.32,0,0,0,12-.65,64.15,64.15,0,0,0,13-4.06c1.68-.72,3.38-1.51,5.06-2.34A135.42,135.42,0,0,0,72.7,102.94h0c9.85-8,22.14-20,27.84-27.28q1-1.34,1.86-2.52c-.61-.79-1.22-1.56-1.82-2.31-7.29,9.31-18.94,21-29.77,29.77a134,134,0,0,1-23.21,15.26c-1.61.81-3.24,1.57-4.89,2.26A61.32,61.32,0,0,1,30.29,122a49.41,49.41,0,0,1-11.26.6,31,31,0,0,1-14-4.82,45.27,45.27,0,0,0,4.9,6,44,44,0,0,0,5.42,1.33C16.64,125.3,17.58,125.48,18.75,125.6Z"/><path class="cls-29" d="M41.85,3A42.64,42.64,0,0,1,53.13,4.82a43.8,43.8,0,0,1,5.55,1.82q2.74-.52,5.56-.8C56.92,2.42,49.28.1,41.89,0a31.72,31.72,0,0,0-18,5,30.23,30.23,0,0,0-2.72,5.27c1.31-.86,3-1.9,4.9-3.09A29.08,29.08,0,0,1,41.85,3Z"/><path class="cls-30" d="M135.8,77.39c-1-2.23-2.18-4.43-3.39-6.57a129.37,129.37,0,0,0-8-12.34c-2.93-4-5.89-7.72-8.59-10.87A252.65,252.65,0,0,0,94,25.78c-1,.48-1.93,1-2.88,1.5.73.62,1.54,1.32,2.44,2.11a259.53,259.53,0,0,1,20,20.18c3,3.53,5.86,7.12,8.43,10.67a130.15,130.15,0,0,1,7.79,12.05c1.19,2.12,2.29,4.26,3.28,6.37,3.59,7.71,5.46,14.81,5.55,21.12.08,6.51-1.47,12.27-4.4,16.21a93.62,93.62,0,0,1-9.1,10.13c-1.11,1.06-2.5,2.27-4,3.49a27,27,0,0,1-3.35,7c5.71-4.37,14.48-13,18.85-18.86,3.55-4.78,5.08-11.29,5-18C141.53,92.35,139.21,84.71,135.8,77.39Z"/><path class="cls-31" d="M98.91,118.11c-1.65-.69-3.28-1.45-4.89-2.26-.84.72-1.72,1.46-2.63,2.21q2.06,1,4.12,1.91C96.67,119.39,97.8,118.77,98.91,118.11Z"/><path class="cls-32" d="M119.54,122.76h-.93c-1.07,0-2.15-.08-3.23-.19-1.34-.13-2.68-.32-4-.58-1.08.86-2.18,1.67-3.31,2.46l2.74.51,1.36.24.15,0c.5.08,1,.16,1.5.22h0l1.46.16.26,0c.46,0,.93.08,1.38.1h.26c.47,0,.94,0,1.41,0h.54c1,0,2,0,3-.11,0-.14,0-.27.07-.4s.1-.51.14-.76c.1-.63.18-1.27.24-1.91C121.6,122.69,120.58,122.75,119.54,122.76Z"/><path class="cls-1" d="M636.93,101h-1.15v2h-2.1V95.52h3.4a4.3,4.3,0,0,1,1.75.33,2.52,2.52,0,0,1,1.55,2.42,2.52,2.52,0,0,1-.38,1.41,2.59,2.59,0,0,1-1.07.94l1.6,2.34h-2.25Zm1-3.52a1.47,1.47,0,0,0-1-.28h-1.17v2.17H637a1.47,1.47,0,0,0,1-.28,1,1,0,0,0,.33-.8A1,1,0,0,0,637.93,97.46Z"/><path class="cls-1" d="M636.81,106.74A7.74,7.74,0,1,1,644.55,99,7.74,7.74,0,0,1,636.81,106.74Zm0-14.38A6.65,6.65,0,1,0,643.46,99,6.66,6.66,0,0,0,636.81,92.36Z"/></g></g></svg>